<mxfile host="app.diagrams.net" modified="2021-02-04T10:32:11.929Z" agent="5.0 (Windows NT 10.0; Win64; x64) AppleWebKit/537.36 (KHTML, like Gecko) Chrome/88.0.4324.146 Safari/537.36" etag="n1Va6JHuLd8aVqDFGfEZ" version="14.2.9" type="github">
  <diagram id="fspMz9dht45pyNxNj956" name="Page-1">
    <mxGraphModel dx="2283" dy="1931" grid="1" gridSize="10" guides="1" tooltips="1" connect="1" arrows="1" fold="1" page="1" pageScale="1" pageWidth="827" pageHeight="1169" math="0" shadow="0">
      <root>
        <object label="" id="0">
          <mxCell />
        </object>
        <mxCell id="1" parent="0" />
        <mxCell id="_PCbJ-xmmDlth09lmVRE-4" value="회원" style="whiteSpace=wrap;html=1;align=center;" vertex="1" parent="1">
          <mxGeometry x="-505" y="-920" width="100" height="40" as="geometry" />
        </mxCell>
        <mxCell id="_PCbJ-xmmDlth09lmVRE-9" value="주민번호" style="ellipse;whiteSpace=wrap;html=1;" vertex="1" parent="1">
          <mxGeometry x="-740" y="-1050" width="90" height="50" as="geometry" />
        </mxCell>
        <mxCell id="_PCbJ-xmmDlth09lmVRE-12" value="이름" style="ellipse;whiteSpace=wrap;html=1;" vertex="1" parent="1">
          <mxGeometry x="-790" y="-1010" width="80" height="50" as="geometry" />
        </mxCell>
        <mxCell id="_PCbJ-xmmDlth09lmVRE-15" value="전화번호" style="ellipse;whiteSpace=wrap;html=1;" vertex="1" parent="1">
          <mxGeometry x="-670" y="-1090" width="90" height="50" as="geometry" />
        </mxCell>
        <mxCell id="_PCbJ-xmmDlth09lmVRE-16" value="핸드폰번호" style="ellipse;whiteSpace=wrap;html=1;" vertex="1" parent="1">
          <mxGeometry x="-590" y="-1120" width="90" height="50" as="geometry" />
        </mxCell>
        <mxCell id="_PCbJ-xmmDlth09lmVRE-18" value="핸드폰번호" style="ellipse;whiteSpace=wrap;html=1;" vertex="1" parent="1">
          <mxGeometry x="-500" y="-1140" width="90" height="50" as="geometry" />
        </mxCell>
        <mxCell id="_PCbJ-xmmDlth09lmVRE-19" value="이메일&lt;span style=&quot;color: rgba(0 , 0 , 0 , 0) ; font-family: monospace ; font-size: 0px&quot;&gt;%3CmxGraphModel%3E%3Croot%3E%3CmxCell%20id%3D%220%22%2F%3E%3CmxCell%20id%3D%221%22%20parent%3D%220%22%2F%3E%3CmxCell%20id%3D%222%22%20value%3D%22%ED%95%B8%EB%93%9C%ED%8F%B0%EB%B2%88%ED%98%B8%22%20style%3D%22ellipse%3BwhiteSpace%3Dwrap%3Bhtml%3D1%3B%22%20vertex%3D%221%22%20parent%3D%221%22%3E%3CmxGeometry%20x%3D%22340%22%20y%3D%22-20%22%20width%3D%2290%22%20height%3D%2250%22%20as%3D%22geometry%22%2F%3E%3C%2FmxCell%3E%3C%2Froot%3E%3C%2FmxGraphModel%3E&lt;/span&gt;" style="ellipse;whiteSpace=wrap;html=1;" vertex="1" parent="1">
          <mxGeometry x="-410" y="-1120" width="90" height="50" as="geometry" />
        </mxCell>
        <mxCell id="_PCbJ-xmmDlth09lmVRE-20" value="우편번호" style="ellipse;whiteSpace=wrap;html=1;" vertex="1" parent="1">
          <mxGeometry x="-330" y="-1090" width="90" height="50" as="geometry" />
        </mxCell>
        <mxCell id="_PCbJ-xmmDlth09lmVRE-21" value="주소&lt;span style=&quot;color: rgba(0 , 0 , 0 , 0) ; font-family: monospace ; font-size: 0px&quot;&gt;%3CmxGraphModel%3E%3Croot%3E%3CmxCell%20id%3D%220%22%2F%3E%3CmxCell%20id%3D%221%22%20parent%3D%220%22%2F%3E%3CmxCell%20id%3D%222%22%20value%3D%22%EC%9D%B4%EB%A9%94%EC%9D%BC%26lt%3Bspan%20style%3D%26quot%3Bcolor%3A%20rgba(0%20%2C%200%20%2C%200%20%2C%200)%20%3B%20font-family%3A%20monospace%20%3B%20font-size%3A%200px%26quot%3B%26gt%3B%253CmxGraphModel%253E%253Croot%253E%253CmxCell%2520id%253D%25220%2522%252F%253E%253CmxCell%2520id%253D%25221%2522%2520parent%253D%25220%2522%252F%253E%253CmxCell%2520id%253D%25222%2522%2520value%253D%2522%25ED%2595%25B8%25EB%2593%259C%25ED%258F%25B0%25EB%25B2%2588%25ED%2598%25B8%2522%2520style%253D%2522ellipse%253BwhiteSpace%253Dwrap%253Bhtml%253D1%253B%2522%2520vertex%253D%25221%2522%2520parent%253D%25221%2522%253E%253CmxGeometry%2520x%253D%2522340%2522%2520y%253D%2522-20%2522%2520width%253D%252290%2522%2520height%253D%252250%2522%2520as%253D%2522geometry%2522%252F%253E%253C%252FmxCell%253E%253C%252Froot%253E%253C%252FmxGraphModel%253E%26lt%3B%2Fspan%26gt%3B%22%20style%3D%22ellipse%3BwhiteSpace%3Dwrap%3Bhtml%3D1%3B%22%20vertex%3D%221%22%20parent%3D%221%22%3E%3CmxGeometry%20x%3D%22430%22%20y%3D%22-20%22%20width%3D%2290%22%20height%3D%2250%22%20as%3D%22geometry%22%2F%3E%3C%2FmxCell%3E%3C%2Froot%3E%3C%2FmxGraphModel%3E&lt;/span&gt;" style="ellipse;whiteSpace=wrap;html=1;" vertex="1" parent="1">
          <mxGeometry x="-260" y="-1050" width="90" height="50" as="geometry" />
        </mxCell>
        <mxCell id="_PCbJ-xmmDlth09lmVRE-22" value="등록일" style="ellipse;whiteSpace=wrap;html=1;" vertex="1" parent="1">
          <mxGeometry x="-190" y="-1010" width="90" height="50" as="geometry" />
        </mxCell>
        <mxCell id="_PCbJ-xmmDlth09lmVRE-24" value="" style="endArrow=none;html=1;rounded=0;entryX=0.5;entryY=1;entryDx=0;entryDy=0;exitX=0.5;exitY=0;exitDx=0;exitDy=0;" edge="1" parent="1" source="_PCbJ-xmmDlth09lmVRE-4" target="_PCbJ-xmmDlth09lmVRE-20">
          <mxGeometry relative="1" as="geometry">
            <mxPoint x="-430" y="-1050" as="sourcePoint" />
            <mxPoint x="-140" y="-1060" as="targetPoint" />
          </mxGeometry>
        </mxCell>
        <mxCell id="_PCbJ-xmmDlth09lmVRE-26" value="" style="endArrow=none;html=1;rounded=0;entryX=0.5;entryY=0;entryDx=0;entryDy=0;exitX=0.5;exitY=1;exitDx=0;exitDy=0;" edge="1" parent="1" source="_PCbJ-xmmDlth09lmVRE-15" target="_PCbJ-xmmDlth09lmVRE-4">
          <mxGeometry relative="1" as="geometry">
            <mxPoint x="-615" y="-1110" as="sourcePoint" />
            <mxPoint x="-430" y="-1050" as="targetPoint" />
            <Array as="points" />
          </mxGeometry>
        </mxCell>
        <mxCell id="_PCbJ-xmmDlth09lmVRE-27" value="" style="endArrow=none;html=1;rounded=0;exitX=0.5;exitY=1;exitDx=0;exitDy=0;entryX=0.5;entryY=0;entryDx=0;entryDy=0;" edge="1" parent="1" source="_PCbJ-xmmDlth09lmVRE-16" target="_PCbJ-xmmDlth09lmVRE-4">
          <mxGeometry relative="1" as="geometry">
            <mxPoint x="-430" y="-1110" as="sourcePoint" />
            <mxPoint x="-455" y="-952" as="targetPoint" />
            <Array as="points" />
          </mxGeometry>
        </mxCell>
        <mxCell id="_PCbJ-xmmDlth09lmVRE-28" value="" style="endArrow=none;html=1;rounded=0;" edge="1" parent="1" source="_PCbJ-xmmDlth09lmVRE-18" target="_PCbJ-xmmDlth09lmVRE-4">
          <mxGeometry relative="1" as="geometry">
            <mxPoint x="-461" y="-1088" as="sourcePoint" />
            <mxPoint x="-430" y="-1053" as="targetPoint" />
            <Array as="points" />
          </mxGeometry>
        </mxCell>
        <mxCell id="_PCbJ-xmmDlth09lmVRE-29" value="" style="endArrow=none;html=1;rounded=0;exitX=0.5;exitY=1;exitDx=0;exitDy=0;entryX=0.5;entryY=0;entryDx=0;entryDy=0;" edge="1" parent="1" source="_PCbJ-xmmDlth09lmVRE-19" target="_PCbJ-xmmDlth09lmVRE-4">
          <mxGeometry relative="1" as="geometry">
            <mxPoint x="-245.5" y="-1120" as="sourcePoint" />
            <mxPoint x="-430" y="-1053" as="targetPoint" />
            <Array as="points" />
          </mxGeometry>
        </mxCell>
        <mxCell id="_PCbJ-xmmDlth09lmVRE-30" value="" style="endArrow=none;html=1;rounded=0;exitX=0.5;exitY=0;exitDx=0;exitDy=0;entryX=0.5;entryY=1;entryDx=0;entryDy=0;" edge="1" parent="1" source="_PCbJ-xmmDlth09lmVRE-4" target="_PCbJ-xmmDlth09lmVRE-21">
          <mxGeometry relative="1" as="geometry">
            <mxPoint x="-430" y="-1050" as="sourcePoint" />
            <mxPoint x="-65" y="-1120" as="targetPoint" />
          </mxGeometry>
        </mxCell>
        <mxCell id="_PCbJ-xmmDlth09lmVRE-31" value="" style="endArrow=none;html=1;rounded=0;entryX=0.5;entryY=1;entryDx=0;entryDy=0;exitX=0.5;exitY=0;exitDx=0;exitDy=0;" edge="1" parent="1" source="_PCbJ-xmmDlth09lmVRE-4" target="_PCbJ-xmmDlth09lmVRE-22">
          <mxGeometry relative="1" as="geometry">
            <mxPoint x="-430" y="-1050" as="sourcePoint" />
            <mxPoint x="25" y="-1120" as="targetPoint" />
          </mxGeometry>
        </mxCell>
        <mxCell id="_PCbJ-xmmDlth09lmVRE-61" value="" style="group" vertex="1" connectable="0" parent="1">
          <mxGeometry x="-780" y="-840" width="670" height="180" as="geometry" />
        </mxCell>
        <mxCell id="_PCbJ-xmmDlth09lmVRE-62" value="dvd" style="whiteSpace=wrap;html=1;align=center;" vertex="1" parent="_PCbJ-xmmDlth09lmVRE-61">
          <mxGeometry x="280" width="100" height="40" as="geometry" />
        </mxCell>
        <mxCell id="_PCbJ-xmmDlth09lmVRE-63" value="영화제목" style="ellipse;whiteSpace=wrap;html=1;align=center;fontStyle=4;" vertex="1" parent="_PCbJ-xmmDlth09lmVRE-61">
          <mxGeometry y="90" width="100" height="40" as="geometry" />
        </mxCell>
        <mxCell id="_PCbJ-xmmDlth09lmVRE-64" value="제작사" style="ellipse;whiteSpace=wrap;html=1;align=center;" vertex="1" parent="_PCbJ-xmmDlth09lmVRE-61">
          <mxGeometry x="90" y="110" width="100" height="40" as="geometry" />
        </mxCell>
        <mxCell id="_PCbJ-xmmDlth09lmVRE-65" value="주연배우" style="ellipse;whiteSpace=wrap;html=1;align=center;" vertex="1" parent="_PCbJ-xmmDlth09lmVRE-61">
          <mxGeometry x="180" y="130" width="100" height="40" as="geometry" />
        </mxCell>
        <mxCell id="_PCbJ-xmmDlth09lmVRE-66" value="감독" style="ellipse;whiteSpace=wrap;html=1;align=center;" vertex="1" parent="_PCbJ-xmmDlth09lmVRE-61">
          <mxGeometry x="280" y="140" width="100" height="40" as="geometry" />
        </mxCell>
        <mxCell id="_PCbJ-xmmDlth09lmVRE-67" value="영화출시일" style="ellipse;whiteSpace=wrap;html=1;align=center;" vertex="1" parent="_PCbJ-xmmDlth09lmVRE-61">
          <mxGeometry x="380" y="130" width="100" height="40" as="geometry" />
        </mxCell>
        <mxCell id="_PCbJ-xmmDlth09lmVRE-68" value="파손여부" style="ellipse;whiteSpace=wrap;html=1;align=center;" vertex="1" parent="_PCbJ-xmmDlth09lmVRE-61">
          <mxGeometry x="474" y="110" width="100" height="40" as="geometry" />
        </mxCell>
        <mxCell id="_PCbJ-xmmDlth09lmVRE-69" value="대여여부" style="ellipse;whiteSpace=wrap;html=1;align=center;" vertex="1" parent="_PCbJ-xmmDlth09lmVRE-61">
          <mxGeometry x="570" y="90" width="100" height="40" as="geometry" />
        </mxCell>
        <mxCell id="_PCbJ-xmmDlth09lmVRE-70" value="" style="endArrow=none;html=1;entryX=0.5;entryY=1;entryDx=0;entryDy=0;exitX=0.5;exitY=0;exitDx=0;exitDy=0;" edge="1" parent="_PCbJ-xmmDlth09lmVRE-61" source="_PCbJ-xmmDlth09lmVRE-63" target="_PCbJ-xmmDlth09lmVRE-62">
          <mxGeometry width="50" height="50" relative="1" as="geometry">
            <mxPoint x="160" y="80" as="sourcePoint" />
            <mxPoint x="210" y="30" as="targetPoint" />
          </mxGeometry>
        </mxCell>
        <mxCell id="_PCbJ-xmmDlth09lmVRE-71" value="" style="endArrow=none;html=1;exitX=0.5;exitY=0;exitDx=0;exitDy=0;" edge="1" parent="_PCbJ-xmmDlth09lmVRE-61" source="_PCbJ-xmmDlth09lmVRE-64">
          <mxGeometry width="50" height="50" relative="1" as="geometry">
            <mxPoint x="95.35533905932743" y="105.85786437626894" as="sourcePoint" />
            <mxPoint x="330" y="40" as="targetPoint" />
          </mxGeometry>
        </mxCell>
        <mxCell id="_PCbJ-xmmDlth09lmVRE-72" value="" style="endArrow=none;html=1;exitX=0.5;exitY=0;exitDx=0;exitDy=0;" edge="1" parent="_PCbJ-xmmDlth09lmVRE-61" source="_PCbJ-xmmDlth09lmVRE-65">
          <mxGeometry width="50" height="50" relative="1" as="geometry">
            <mxPoint x="150" y="120" as="sourcePoint" />
            <mxPoint x="330" y="40" as="targetPoint" />
          </mxGeometry>
        </mxCell>
        <mxCell id="_PCbJ-xmmDlth09lmVRE-73" value="" style="endArrow=none;html=1;exitX=0.5;exitY=0;exitDx=0;exitDy=0;" edge="1" parent="_PCbJ-xmmDlth09lmVRE-61" source="_PCbJ-xmmDlth09lmVRE-66">
          <mxGeometry width="50" height="50" relative="1" as="geometry">
            <mxPoint x="240" y="140" as="sourcePoint" />
            <mxPoint x="330" y="40" as="targetPoint" />
          </mxGeometry>
        </mxCell>
        <mxCell id="_PCbJ-xmmDlth09lmVRE-74" value="" style="endArrow=none;html=1;exitX=0.5;exitY=0;exitDx=0;exitDy=0;entryX=0.5;entryY=1;entryDx=0;entryDy=0;" edge="1" parent="_PCbJ-xmmDlth09lmVRE-61" source="_PCbJ-xmmDlth09lmVRE-67" target="_PCbJ-xmmDlth09lmVRE-62">
          <mxGeometry width="50" height="50" relative="1" as="geometry">
            <mxPoint x="340" y="150" as="sourcePoint" />
            <mxPoint x="340" y="50" as="targetPoint" />
          </mxGeometry>
        </mxCell>
        <mxCell id="_PCbJ-xmmDlth09lmVRE-75" value="" style="endArrow=none;html=1;exitX=0.5;exitY=0;exitDx=0;exitDy=0;" edge="1" parent="_PCbJ-xmmDlth09lmVRE-61" source="_PCbJ-xmmDlth09lmVRE-68">
          <mxGeometry width="50" height="50" relative="1" as="geometry">
            <mxPoint x="523.5" y="110" as="sourcePoint" />
            <mxPoint x="330" y="40" as="targetPoint" />
          </mxGeometry>
        </mxCell>
        <mxCell id="_PCbJ-xmmDlth09lmVRE-76" value="" style="endArrow=none;html=1;exitX=0.5;exitY=0;exitDx=0;exitDy=0;entryX=0.5;entryY=1;entryDx=0;entryDy=0;" edge="1" parent="_PCbJ-xmmDlth09lmVRE-61" source="_PCbJ-xmmDlth09lmVRE-69" target="_PCbJ-xmmDlth09lmVRE-62">
          <mxGeometry width="50" height="50" relative="1" as="geometry">
            <mxPoint x="624" y="90" as="sourcePoint" />
            <mxPoint x="524" as="targetPoint" />
          </mxGeometry>
        </mxCell>
        <mxCell id="_PCbJ-xmmDlth09lmVRE-109" value="" style="endArrow=none;html=1;rounded=0;exitX=0.5;exitY=1;exitDx=0;exitDy=0;entryX=0.5;entryY=0;entryDx=0;entryDy=0;" edge="1" parent="1" source="_PCbJ-xmmDlth09lmVRE-12" target="_PCbJ-xmmDlth09lmVRE-4">
          <mxGeometry relative="1" as="geometry">
            <mxPoint x="-740" y="-1000" as="sourcePoint" />
            <mxPoint x="-535" y="-910" as="targetPoint" />
          </mxGeometry>
        </mxCell>
        <mxCell id="_PCbJ-xmmDlth09lmVRE-110" value="" style="endArrow=none;html=1;rounded=0;exitX=0.5;exitY=1;exitDx=0;exitDy=0;entryX=0.5;entryY=0;entryDx=0;entryDy=0;" edge="1" parent="1" source="_PCbJ-xmmDlth09lmVRE-9" target="_PCbJ-xmmDlth09lmVRE-4">
          <mxGeometry relative="1" as="geometry">
            <mxPoint x="-690" y="-1070" as="sourcePoint" />
            <mxPoint x="-547.7777777777778" y="-910" as="targetPoint" />
            <Array as="points" />
          </mxGeometry>
        </mxCell>
      </root>
    </mxGraphModel>
  </diagram>
</mxfile>
